<svg width="144" height="49" viewBox="0 0 144 49" fill="none" xmlns="http://www.w3.org/2000/svg">
<path d="M8.36 44.24C6.93333 44.24 5.64 43.9333 4.48 43.32C3.33333 42.6933 2.42667 41.8333 1.76 40.74C1.10667 39.6333 0.78 38.3867 0.78 37C0.78 35.6133 1.10667 34.3733 1.76 33.28C2.42667 32.1733 3.33333 31.3133 4.48 30.7C5.64 30.0733 6.94 29.76 8.38 29.76C9.59333 29.76 10.6867 29.9733 11.66 30.4C12.6467 30.8267 13.4733 31.44 14.14 32.24L12.06 34.16C11.1133 33.0667 9.94 32.52 8.54 32.52C7.67333 32.52 6.9 32.7133 6.22 33.1C5.54 33.4733 5.00667 34 4.62 34.68C4.24667 35.36 4.06 36.1333 4.06 37C4.06 37.8667 4.24667 38.64 4.62 39.32C5.00667 40 5.54 40.5333 6.22 40.92C6.9 41.2933 7.67333 41.48 8.54 41.48C9.94 41.48 11.1133 40.9267 12.06 39.82L14.14 41.74C13.4733 42.5533 12.6467 43.1733 11.66 43.6C10.6733 44.0267 9.57333 44.24 8.36 44.24ZM46.9389 39.78L45.4389 41.26V44H42.3189V29.16H45.4389V37.56L49.9989 33.24H53.7189L49.2389 37.8L54.1189 44H50.3389L46.9389 39.78ZM55.4439 33.24H58.5639V44H55.4439V33.24ZM57.0039 31.74C56.4306 31.74 55.9639 31.5733 55.6039 31.24C55.2439 30.9067 55.0639 30.4933 55.0639 30C55.0639 29.5067 55.2439 29.0933 55.6039 28.76C55.9639 28.4267 56.4306 28.26 57.0039 28.26C57.5772 28.26 58.0439 28.42 58.4039 28.74C58.7639 29.06 58.9439 29.46 58.9439 29.94C58.9439 30.46 58.7639 30.8933 58.4039 31.24C58.0439 31.5733 57.5772 31.74 57.0039 31.74ZM67.9995 33.08C69.3329 33.08 70.4062 33.48 71.2195 34.28C72.0462 35.08 72.4595 36.2667 72.4595 37.84V44H69.3395V38.32C69.3395 37.4667 69.1529 36.8333 68.7795 36.42C68.4062 35.9933 67.8662 35.78 67.1595 35.78C66.3729 35.78 65.7462 36.0267 65.2795 36.52C64.8129 37 64.5795 37.72 64.5795 38.68V44H61.4595V33.24H64.4395V34.5C64.8529 34.0467 65.3662 33.7 65.9795 33.46C66.5929 33.2067 67.2662 33.08 67.9995 33.08ZM86.5048 33.24V42.2C86.5048 44.1733 85.9915 45.64 84.9648 46.6C83.9382 47.56 82.4382 48.04 80.4648 48.04C79.4248 48.04 78.4382 47.9133 77.5048 47.66C76.5715 47.4067 75.7982 47.04 75.1848 46.56L76.4248 44.32C76.8782 44.6933 77.4515 44.9867 78.1448 45.2C78.8382 45.4267 79.5315 45.54 80.2248 45.54C81.3048 45.54 82.0982 45.2933 82.6048 44.8C83.1248 44.32 83.3848 43.5867 83.3848 42.6V42.14C82.5715 43.0333 81.4382 43.48 79.9848 43.48C78.9982 43.48 78.0915 43.2667 77.2648 42.84C76.4515 42.4 75.8048 41.7867 75.3248 41C74.8448 40.2133 74.6048 39.3067 74.6048 38.28C74.6048 37.2533 74.8448 36.3467 75.3248 35.56C75.8048 34.7733 76.4515 34.1667 77.2648 33.74C78.0915 33.3 78.9982 33.08 79.9848 33.08C81.5448 33.08 82.7315 33.5933 83.5448 34.62V33.24H86.5048ZM80.6048 40.92C81.4315 40.92 82.1048 40.68 82.6248 40.2C83.1582 39.7067 83.4248 39.0667 83.4248 38.28C83.4248 37.4933 83.1582 36.86 82.6248 36.38C82.1048 35.8867 81.4315 35.64 80.6048 35.64C79.7782 35.64 79.0982 35.8867 78.5648 36.38C78.0315 36.86 77.7648 37.4933 77.7648 38.28C77.7648 39.0667 78.0315 39.7067 78.5648 40.2C79.0982 40.68 79.7782 40.92 80.6048 40.92ZM89.6288 30H95.9888C97.5088 30 98.8488 30.2933 100.009 30.88C101.182 31.4533 102.089 32.2667 102.729 33.32C103.382 34.3733 103.709 35.6 103.709 37C103.709 38.4 103.382 39.6267 102.729 40.68C102.089 41.7333 101.182 42.5533 100.009 43.14C98.8488 43.7133 97.5088 44 95.9888 44H89.6288V30ZM95.8288 41.34C97.2288 41.34 98.3421 40.9533 99.1688 40.18C100.009 39.3933 100.429 38.3333 100.429 37C100.429 35.6667 100.009 34.6133 99.1688 33.84C98.3421 33.0533 97.2288 32.66 95.8288 32.66H92.8688V41.34H95.8288ZM105.932 33.24H109.052V44H105.932V33.24ZM107.492 31.74C106.919 31.74 106.452 31.5733 106.092 31.24C105.732 30.9067 105.552 30.4933 105.552 30C105.552 29.5067 105.732 29.0933 106.092 28.76C106.452 28.4267 106.919 28.26 107.492 28.26C108.066 28.26 108.532 28.42 108.892 28.74C109.252 29.06 109.432 29.46 109.432 29.94C109.432 30.46 109.252 30.8933 108.892 31.24C108.532 31.5733 108.066 31.74 107.492 31.74ZM116.288 33.08C117.954 33.08 119.234 33.48 120.128 34.28C121.021 35.0667 121.468 36.26 121.468 37.86V44H118.548V42.66C117.961 43.66 116.868 44.16 115.268 44.16C114.441 44.16 113.721 44.02 113.108 43.74C112.508 43.46 112.048 43.0733 111.728 42.58C111.408 42.0867 111.248 41.5267 111.248 40.9C111.248 39.9 111.621 39.1133 112.368 38.54C113.128 37.9667 114.294 37.68 115.868 37.68H118.348C118.348 37 118.141 36.48 117.728 36.12C117.314 35.7467 116.694 35.56 115.868 35.56C115.294 35.56 114.728 35.6533 114.168 35.84C113.621 36.0133 113.154 36.2533 112.768 36.56L111.648 34.38C112.234 33.9667 112.934 33.6467 113.748 33.42C114.574 33.1933 115.421 33.08 116.288 33.08ZM116.048 42.06C116.581 42.06 117.054 41.94 117.468 41.7C117.881 41.4467 118.174 41.08 118.348 40.6V39.5H116.208C114.928 39.5 114.288 39.92 114.288 40.76C114.288 41.16 114.441 41.48 114.748 41.72C115.068 41.9467 115.501 42.06 116.048 42.06ZM127.272 34.66C127.645 34.14 128.145 33.7467 128.772 33.48C129.412 33.2133 130.145 33.08 130.972 33.08V35.96C130.625 35.9333 130.392 35.92 130.272 35.92C129.378 35.92 128.678 36.1733 128.172 36.68C127.665 37.1733 127.412 37.92 127.412 38.92V44H124.292V33.24H127.272V34.66ZM143.878 33.24L139.018 44.66C138.524 45.9 137.911 46.7733 137.178 47.28C136.458 47.7867 135.584 48.04 134.558 48.04C133.998 48.04 133.444 47.9533 132.898 47.78C132.351 47.6067 131.904 47.3667 131.558 47.06L132.698 44.84C132.938 45.0533 133.211 45.22 133.518 45.34C133.838 45.46 134.151 45.52 134.458 45.52C134.884 45.52 135.231 45.4133 135.498 45.2C135.764 45 136.004 44.66 136.218 44.18L136.258 44.08L131.598 33.24H134.818L137.838 40.54L140.878 33.24H143.878Z" fill="black"/>
<path d="M21.228 44.16C20.0946 44.16 19.0746 43.9267 18.168 43.46C17.2746 42.98 16.5746 42.32 16.068 41.48C15.5613 40.64 15.308 39.6867 15.308 38.62C15.308 37.5533 15.5613 36.6 16.068 35.76C16.5746 34.92 17.2746 34.2667 18.168 33.8C19.0746 33.32 20.0946 33.08 21.228 33.08C22.3613 33.08 23.3746 33.32 24.268 33.8C25.1613 34.2667 25.8613 34.92 26.368 35.76C26.8746 36.6 27.128 37.5533 27.128 38.62C27.128 39.6867 26.8746 40.64 26.368 41.48C25.8613 42.32 25.1613 42.98 24.268 43.46C23.3746 43.9267 22.3613 44.16 21.228 44.16ZM21.228 41.6C22.028 41.6 22.6813 41.3333 23.188 40.8C23.708 40.2533 23.968 39.5267 23.968 38.62C23.968 37.7133 23.708 36.9933 23.188 36.46C22.6813 35.9133 22.028 35.64 21.228 35.64C20.428 35.64 19.768 35.9133 19.248 36.46C18.728 36.9933 18.468 37.7133 18.468 38.62C18.468 39.5267 18.728 40.2533 19.248 40.8C19.768 41.3333 20.428 41.6 21.228 41.6ZM34.3334 44.16C33.2001 44.16 32.1801 43.9267 31.2734 43.46C30.3801 42.98 29.6801 42.32 29.1734 41.48C28.6668 40.64 28.4134 39.6867 28.4134 38.62C28.4134 37.5533 28.6668 36.6 29.1734 35.76C29.6801 34.92 30.3801 34.2667 31.2734 33.8C32.1801 33.32 33.2001 33.08 34.3334 33.08C35.4668 33.08 36.4801 33.32 37.3734 33.8C38.2668 34.2667 38.9668 34.92 39.4734 35.76C39.9801 36.6 40.2334 37.5533 40.2334 38.62C40.2334 39.6867 39.9801 40.64 39.4734 41.48C38.9668 42.32 38.2668 42.98 37.3734 43.46C36.4801 43.9267 35.4668 44.16 34.3334 44.16ZM34.3334 41.6C35.1334 41.6 35.7868 41.3333 36.2934 40.8C36.8134 40.2533 37.0734 39.5267 37.0734 38.62C37.0734 37.7133 36.8134 36.9933 36.2934 36.46C35.7868 35.9133 35.1334 35.64 34.3334 35.64C33.5334 35.64 32.8734 35.9133 32.3534 36.46C31.8334 36.9933 31.5734 37.7133 31.5734 38.62C31.5734 39.5267 31.8334 40.2533 32.3534 40.8C32.8734 41.3333 33.5334 41.6 34.3334 41.6Z" fill="#EF9C12"/>
<g clip-path="url(#clip0)">
<path d="M21.1818 14.3182C21.1818 13.9413 20.8768 13.6363 20.5 13.6363C20.1231 13.6363 19.8181 13.9413 19.8181 14.3182C19.8181 16.1086 21.793 18.5669 22.0181 18.8419C22.1533 19.0057 22.349 19.0909 22.5461 19.0909C22.6979 19.0909 22.851 19.0403 22.9782 18.9364C23.2691 18.6974 23.3111 18.268 23.0727 17.9763C22.3417 17.0854 21.1818 15.3049 21.1818 14.3182Z" fill="#EF9C12"/>
<path d="M35.5 13.6363C35.1231 13.6363 34.8182 13.9413 34.8182 14.3182C34.8182 15.3016 33.6583 17.0841 32.9272 17.977C32.6888 18.268 32.7314 18.6974 33.0224 18.9364C33.1489 19.0403 33.3021 19.0909 33.4545 19.0909C33.6516 19.0909 33.8467 19.0057 33.9819 18.8419C34.207 18.5669 36.1818 16.1087 36.1818 14.3182C36.1818 13.9413 35.8769 13.6363 35.5 13.6363Z" fill="#EF9C12"/>
<path d="M28 13.6363C27.6231 13.6363 27.3182 13.9413 27.3182 14.3182V18.4091C27.3182 18.786 27.6231 19.0909 28 19.0909C28.3769 19.0909 28.6819 18.786 28.6819 18.4091V14.3182C28.6818 13.9413 28.3768 13.6363 28 13.6363Z" fill="#EF9C12"/>
<path d="M35.5 2.7273C35.0868 2.7273 34.655 2.78195 34.2066 2.86524C32.705 1.11471 30.482 0 28 0C25.5181 0 23.295 1.11471 21.7934 2.86517C21.3449 2.78195 20.9132 2.72723 20.5 2.72723C16.3645 2.7273 13 6.09175 13 10.2273C13 13.0611 14.598 15.6372 17.1069 16.9109L17.0936 27.2148C17.093 27.9585 17.3819 28.6577 17.9072 29.1837C18.4332 29.7104 19.1317 30 19.8755 30H36.1273C37.6614 30 38.9092 28.7522 38.9092 27.2181V16.901C41.4087 15.6239 43.0001 13.0517 43.0001 10.2273C43 6.09175 39.6355 2.7273 35.5 2.7273ZM37.5455 27.2182C37.5455 27.9999 36.909 28.6364 36.1272 28.6364H19.8754C19.4966 28.6364 19.1403 28.4886 18.872 28.2203C18.6043 27.952 18.4565 27.5958 18.4571 27.2163L18.4607 24.5455H37.5455V27.2182ZM37.9676 15.8396C37.9316 15.8543 37.8977 15.8716 37.8657 15.8922C37.7798 15.9455 37.7092 16.0161 37.6566 16.0973C37.6034 16.1778 37.5674 16.2711 37.5528 16.3709C37.5468 16.4089 37.5448 16.4469 37.5454 16.4855V23.1818H18.4625L18.4712 16.4947C18.4719 16.4575 18.4699 16.4195 18.4646 16.3829C18.4499 16.2797 18.412 16.1838 18.3567 16.1006C18.3047 16.0226 18.2368 15.9547 18.1542 15.9028C18.1203 15.8815 18.0843 15.8628 18.047 15.8475C15.8092 14.8689 14.3636 12.6649 14.3636 10.2273C14.3636 6.84346 17.1162 4.09091 20.5 4.09091C20.6322 4.09091 20.7718 4.10689 20.9088 4.11769C20.219 5.31659 19.8181 6.702 19.8181 8.18182C19.8181 8.5587 20.1231 8.86366 20.5 8.86366C20.8769 8.86366 21.1818 8.5587 21.1818 8.18182C21.1818 4.42247 24.2407 1.36362 28 1.36362C31.7594 1.36362 34.8182 4.42247 34.8182 8.18182C34.8182 8.5587 35.1231 8.86366 35.5 8.86366C35.8769 8.86366 36.1819 8.5587 36.1819 8.18182C36.1819 6.702 35.781 5.31665 35.0912 4.11769C35.2282 4.10689 35.3678 4.09091 35.5 4.09091C38.8838 4.09091 41.6364 6.84352 41.6364 10.2273C41.6364 12.6563 40.1968 14.8575 37.9676 15.8396Z" fill="#EF9C12"/>
</g>
<defs>
<clipPath id="clip0">
<rect width="30" height="30" fill="white" transform="translate(13)"/>
</clipPath>
</defs>
</svg>
